<?xml version="1.0" encoding="utf-8"?>
<!-- Generator: Adobe Illustrator 16.0.0, SVG Export Plug-In . SVG Version: 6.00 Build 0)  -->
<!DOCTYPE svg PUBLIC "-//W3C//DTD SVG 1.1//EN" "http://www.w3.org/Graphics/SVG/1.1/DTD/svg11.dtd">
<svg version="1.1" id="Layer_1" xmlns="http://www.w3.org/2000/svg" xmlns:xlink="http://www.w3.org/1999/xlink" x="0px" y="0px"
	 width="1216.05px" height="1334px" viewBox="0 0 1216.05 1334" enable-background="new 0 0 1216.05 1334" xml:space="preserve">
<rect fill="#3D4D5F" width="1216.055" height="1334"/>
<g>
	<defs>
		<rect id="SVGID_1_" width="1216.055" height="1334"/>
	</defs>
	<clipPath id="SVGID_2_">
		<use xlink:href="#SVGID_1_"  overflow="visible"/>
	</clipPath>
	<path clip-path="url(#SVGID_2_)" fill="#01ACED" d="M432.056,937.4c-8.15,0-15.958-4.619-19.645-12.486
		c-5.081-10.843-0.411-23.752,10.432-28.833c20.114-9.425,41.647-14.202,64.003-14.202c17.318,0,34.313,2.914,50.516,8.664
		c11.284,4.006,17.185,16.396,13.182,27.682c-4.006,11.285-16.407,17.194-27.682,13.181c-11.535-4.092-23.653-6.167-36.016-6.167
		c-15.948,0-31.292,3.4-45.604,10.108C438.268,936.738,435.138,937.4,432.056,937.4"/>
</g>
<text transform="matrix(0.9317 -0.3633 0.3633 0.9317 438.9316 923.7832)" fill="#FFFFFF" font-family="'HelveticaNeue-Light'" font-size="34.069">t</text>
<text transform="matrix(0.9751 -0.2219 0.2219 0.9751 448.0205 919.6299)" fill="#FFFFFF" font-family="'HelveticaNeue-Light'" font-size="34.069">w</text>
<text transform="matrix(0.9958 -0.0916 0.0916 0.9958 472.666 914.6572)" fill="#FFFFFF" font-family="'HelveticaNeue-Light'" font-size="34.0689">i</text>
<text transform="matrix(0.9998 -0.0214 0.0214 0.9998 479.2114 913.998)" fill="#FFFFFF" font-family="'HelveticaNeue-Light'" font-size="34.069">t</text>
<text transform="matrix(0.998 0.0637 -0.0637 0.998 489.5044 913.7852)" fill="#FFFFFF" font-family="'HelveticaNeue-Light'" font-size="34.069">t</text>
<text transform="matrix(0.9838 0.1793 -0.1793 0.9838 499.6274 914.2109)" fill="#FFFFFF" font-family="'HelveticaNeue-Light'" font-size="34.0689">e</text>
<text transform="matrix(0.9553 0.2957 -0.2957 0.9553 516.9575 917.5801)" fill="#FFFFFF" font-family="'HelveticaNeue-Light'" font-size="34.0689">r</text>
<g>
	<defs>
		<rect id="SVGID_3_" width="1216.055" height="1334"/>
	</defs>
	<clipPath id="SVGID_4_">
		<use xlink:href="#SVGID_3_"  overflow="visible"/>
	</clipPath>
	<path clip-path="url(#SVGID_4_)" fill="#01ACED" d="M576.435,1032.873c0,49.479-40.11,89.588-89.588,89.588
		s-89.588-40.109-89.588-89.588c0-49.478,40.11-89.588,89.588-89.588S576.435,983.396,576.435,1032.873"/>
	<path clip-path="url(#SVGID_4_)" fill="#FFFFFF" d="M501.295,1005.233h3.278c2.625,0.641,5.173,1.476,7.136,3.443
		c0.641,0.643,1.237,0.742,2.021,0.458c2.303-0.835,4.612-1.655,6.968-2.499c-0.841,2.77-2.736,4.806-5.017,6.566
		c0.058,0.109,0.116,0.22,0.174,0.328c2.171-0.587,4.342-1.174,6.513-1.762c0.087,0.101,0.174,0.201,0.262,0.301
		c-1.909,1.861-3.836,3.705-5.711,5.601c-0.364,0.369-0.743,0.938-0.744,1.417c-0.006,4.663-0.7,9.207-2.297,13.588
		c-3.098,8.494-8.317,15.36-16.188,19.904c-9.326,5.384-19.302,6.416-29.668,3.584c-3.314-0.905-6.434-2.292-9.315-4.284
		c6.925,0.453,13.177-1.25,18.976-5.586c-6.072-0.651-10.088-3.589-12.254-9.239h5.369c-6.151-2.335-9.598-6.51-10.009-13.27
		c1.062,0.401,1.898,0.788,2.774,1.028c0.838,0.23,1.719,0.306,2.89,0.5c-5.792-5.937-7.236-13.21-3.641-17.48
		c7.13,8.274,16.076,12.907,27.019,13.615c0.041-0.229,0.057-0.269,0.053-0.307c-0.019-0.166-0.044-0.331-0.067-0.497
		c-0.679-4.916,0.848-9.001,4.587-12.271C496.393,1006.632,498.774,1005.788,501.295,1005.233"/>
	<path clip-path="url(#SVGID_4_)" fill="#01ACED" d="M817.033,1032.873c0,49.479-40.109,89.588-89.588,89.588
		c-49.478,0-89.588-40.109-89.588-89.588c0-49.478,40.11-89.588,89.588-89.588C776.924,943.285,817.033,983.396,817.033,1032.873"/>
	<circle clip-path="url(#SVGID_4_)" fill="none" stroke="#FFFFFF" stroke-miterlimit="10" cx="229.888" cy="1032.873" r="89.588"/>
	<path clip-path="url(#SVGID_4_)" fill="#FFFFFF" d="M244.336,1005.233h3.278c2.625,0.641,5.173,1.476,7.136,3.443
		c0.641,0.643,1.237,0.742,2.021,0.458c2.303-0.835,4.612-1.655,6.968-2.499c-0.841,2.77-2.736,4.806-5.017,6.566
		c0.058,0.109,0.116,0.22,0.174,0.328c2.171-0.587,4.342-1.174,6.512-1.762c0.088,0.101,0.175,0.201,0.263,0.301
		c-1.909,1.861-3.836,3.705-5.711,5.601c-0.364,0.369-0.743,0.938-0.744,1.417c-0.006,4.663-0.7,9.207-2.297,13.588
		c-3.098,8.494-8.317,15.36-16.188,19.904c-9.326,5.384-19.302,6.416-29.668,3.584c-3.314-0.905-6.434-2.292-9.315-4.284
		c6.925,0.453,13.177-1.25,18.976-5.586c-6.072-0.651-10.088-3.589-12.254-9.239h5.369c-6.151-2.335-9.598-6.51-10.009-13.27
		c1.062,0.401,1.898,0.788,2.774,1.028c0.838,0.23,1.719,0.306,2.89,0.5c-5.792-5.937-7.236-13.21-3.641-17.48
		c7.13,8.274,16.076,12.907,27.019,13.615c0.041-0.229,0.057-0.269,0.053-0.307c-0.019-0.166-0.044-0.331-0.067-0.497
		c-0.679-4.916,0.848-9.001,4.587-12.271C239.435,1006.632,241.815,1005.788,244.336,1005.233"/>
	<path clip-path="url(#SVGID_4_)" fill="#01ACED" d="M741.895,917.174h3.277c2.625,0.64,5.174,1.475,7.137,3.443
		c0.641,0.643,1.236,0.741,2.021,0.458c2.304-0.835,4.612-1.655,6.968-2.499c-0.841,2.77-2.735,4.806-5.017,6.565
		c0.058,0.11,0.116,0.22,0.174,0.329l6.513-1.762c0.088,0.1,0.175,0.201,0.263,0.301c-1.909,1.861-3.836,3.705-5.711,5.6
		c-0.364,0.369-0.743,0.939-0.744,1.417c-0.006,4.663-0.7,9.207-2.297,13.589c-3.099,8.493-8.317,15.359-16.188,19.903
		c-9.326,5.384-19.302,6.416-29.668,3.584c-3.313-0.904-6.434-2.292-9.314-4.284c6.925,0.453,13.177-1.25,18.976-5.586
		c-6.072-0.65-10.088-3.589-12.254-9.238h5.369c-6.151-2.335-9.599-6.511-10.009-13.271c1.062,0.402,1.897,0.789,2.773,1.029
		c0.838,0.229,1.719,0.305,2.891,0.5c-5.793-5.938-7.236-13.21-3.642-17.481c7.13,8.275,16.076,12.908,27.02,13.616
		c0.041-0.229,0.057-0.269,0.053-0.307c-0.02-0.166-0.044-0.331-0.067-0.497c-0.679-4.916,0.849-9.001,4.587-12.272
		C736.992,918.572,739.373,917.728,741.895,917.174"/>
</g>
<g>
	<defs>
		<path id="SVGID_5_" d="M637.858,1032.874c0,49.477,40.108,89.587,89.588,89.587c49.478,0,89.588-40.11,89.588-89.587
			c0-49.479-40.11-89.588-89.588-89.588C677.967,943.286,637.858,983.395,637.858,1032.874"/>
	</defs>
	<clipPath id="SVGID_6_">
		<use xlink:href="#SVGID_5_"  overflow="visible"/>
	</clipPath>
	<path clip-path="url(#SVGID_6_)" fill="#FFFFFF" d="M741.895,917.174h3.277c2.625,0.64,5.174,1.475,7.137,3.443
		c0.641,0.643,1.236,0.741,2.021,0.458c2.304-0.835,4.612-1.655,6.968-2.499c-0.841,2.77-2.735,4.806-5.017,6.565
		c0.058,0.11,0.116,0.22,0.174,0.329l6.513-1.762c0.088,0.1,0.175,0.201,0.263,0.301c-1.909,1.861-3.836,3.705-5.711,5.6
		c-0.364,0.369-0.743,0.939-0.744,1.417c-0.006,4.663-0.7,9.207-2.297,13.589c-3.099,8.493-8.317,15.359-16.188,19.903
		c-9.326,5.384-19.302,6.416-29.668,3.584c-3.313-0.904-6.434-2.292-9.314-4.284c6.925,0.453,13.177-1.25,18.976-5.586
		c-6.072-0.65-10.088-3.589-12.254-9.238h5.369c-6.151-2.335-9.599-6.511-10.009-13.271c1.062,0.402,1.897,0.789,2.773,1.029
		c0.838,0.229,1.719,0.305,2.891,0.5c-5.793-5.938-7.236-13.21-3.642-17.481c7.13,8.275,16.076,12.908,27.02,13.616
		c0.041-0.229,0.057-0.269,0.053-0.307c-0.02-0.166-0.044-0.331-0.067-0.497c-0.679-4.916,0.849-9.001,4.587-12.272
		C736.992,918.572,739.373,917.728,741.895,917.174"/>
</g>
<g>
	<defs>
		<rect id="SVGID_7_" width="1216.055" height="1334"/>
	</defs>
	<clipPath id="SVGID_8_">
		<use xlink:href="#SVGID_7_"  overflow="visible"/>
	</clipPath>
	<path clip-path="url(#SVGID_8_)" fill="#01ACED" d="M1051.021,1032.873c0,49.479-40.109,89.588-89.588,89.588
		c-49.478,0-89.588-40.109-89.588-89.588c0-49.478,40.11-89.588,89.588-89.588C1010.912,943.285,1051.021,983.396,1051.021,1032.873
		"/>
	<path clip-path="url(#SVGID_8_)" fill="#01ACED" d="M975.883,578.354h3.277c2.625,0.64,5.174,1.476,7.137,3.443
		c0.641,0.643,1.236,0.742,2.021,0.458c2.304-0.835,4.612-1.655,6.968-2.499c-0.841,2.77-2.735,4.806-5.017,6.566
		c0.058,0.11,0.116,0.22,0.174,0.329c2.171-0.587,4.342-1.174,6.514-1.762l0.262,0.301c-1.909,1.861-3.836,3.705-5.711,5.6
		c-0.364,0.369-0.743,0.939-0.744,1.417c-0.006,4.663-0.7,9.207-2.297,13.588c-3.099,8.494-8.317,15.36-16.188,19.904
		c-9.326,5.384-19.302,6.416-29.668,3.584c-3.313-0.905-6.433-2.292-9.314-4.284c6.925,0.453,13.177-1.25,18.976-5.585
		c-6.072-0.652-10.088-3.59-12.254-9.24h5.369c-6.151-2.335-9.599-6.51-10.009-13.27c1.062,0.402,1.897,0.789,2.773,1.029
		c0.838,0.23,1.719,0.305,2.891,0.5c-5.792-5.937-7.236-13.21-3.642-17.481c7.13,8.275,16.076,12.908,27.02,13.616
		c0.041-0.229,0.057-0.269,0.053-0.307c-0.02-0.166-0.044-0.331-0.067-0.497c-0.679-4.916,0.849-9.001,4.587-12.272
		C970.98,579.752,973.361,578.909,975.883,578.354"/>
</g>
</svg>
